HIERARCHY
ROOT Hips
{
	OFFSET 0.000000 0.000000 0.000000
	CHANNELS 6 Xposition Yposition Zposition Zrotation Yrotation Xrotation 
	JOINT LHipJoint
	{
		OFFSET 0.000000 0.000000 0.000000
		CHANNELS 3 Zrotation Yrotation Xrotation
		JOINT LeftUpLeg
		{
			OFFSET 1.363060 -1.794630 0.839290
			CHANNELS 3 Zrotation Yrotation Xrotation
			JOINT LeftLeg
			{
				OFFSET 2.448110 -6.726130 0.000000
				CHANNELS 3 Zrotation Yrotation Xrotation
				JOINT LeftFoot
				{
					OFFSET 2.562200 -7.039590 0.000000
					CHANNELS 3 Zrotation Yrotation Xrotation
					JOINT LeftToeBase
					{
						OFFSET 0.157640 -0.433110 2.322550
						CHANNELS 3 Zrotation Yrotation Xrotation
						End Site
						{
							OFFSET 0.000000 0.000000 0.000000
						}
					}
				}
			}
		}
	}
	JOINT RHipJoint
	{
		OFFSET 0.000000 0.000000 0.000000
		CHANNELS 3 Zrotation Yrotation Xrotation
		JOINT RightUpLeg
		{
			OFFSET -1.305520 -1.794630 0.839290
			CHANNELS 3 Zrotation Yrotation Xrotation
			JOINT RightLeg
			{
				OFFSET -2.542530 -6.985550 0.000000
				CHANNELS 3 Zrotation Yrotation Xrotation
				JOINT RightFoot
				{
					OFFSET -2.568260 -7.056230 0.000000
					CHANNELS 3 Zrotation Yrotation Xrotation
					JOINT RightToeBase
					{
						OFFSET -0.164730 -0.452590 2.363150
						CHANNELS 3 Zrotation Yrotation Xrotation
						End Site
						{
							OFFSET 0.000000 0.000000 0.000000
						}
					}
				}
			}
		}
	}
	JOINT LowerBack
	{
		OFFSET 0.000000 0.000000 0.000000
		CHANNELS 3 Zrotation Yrotation Xrotation
		JOINT Spine
		{
			OFFSET 0.028270 2.035590 -0.193380
			CHANNELS 3 Zrotation Yrotation Xrotation
			JOINT Spine1
			{
				OFFSET 0.056720 2.048850 -0.042750
				CHANNELS 3 Zrotation Yrotation Xrotation
				JOINT Neck
				{
					OFFSET 0.000000 0.000000 0.000000
					CHANNELS 3 Zrotation Yrotation Xrotation
					JOINT Neck1
					{
						OFFSET -0.054170 1.746240 0.172020
						CHANNELS 3 Zrotation Yrotation Xrotation
						JOINT Head
						{
							OFFSET 0.104070 1.761360 -0.123970
							CHANNELS 3 Zrotation Yrotation Xrotation
							End Site
							{
								OFFSET 0.000000 0.000000 0.000000
							}
						}
					}
				}
				JOINT LeftShoulder
				{
					OFFSET 0.000000 0.000000 0.000000
					CHANNELS 3 Zrotation Yrotation Xrotation
					JOINT LeftArm
					{
						OFFSET 3.362410 1.200890 -0.311210
						CHANNELS 3 Zrotation Yrotation Xrotation
						JOINT LeftForeArm
						{
							OFFSET 4.983000 -0.000000 -0.000000
							CHANNELS 3 Zrotation Yrotation Xrotation
							JOINT LeftHand
							{
								OFFSET 3.483560 -0.000000 -0.000000
								CHANNELS 3 Zrotation Yrotation Xrotation
								JOINT LeftFingerBase
								{
									OFFSET 0.000000 0.000000 0.000000
									CHANNELS 3 Zrotation Yrotation Xrotation
									JOINT LeftHandIndex1
									{
										OFFSET 0.715260 -0.000000 -0.000000
										CHANNELS 3 Zrotation Yrotation Xrotation
										End Site
										{
											OFFSET 0.000000 0.000000 0.000000
										}
									}
								}
								JOINT LThumb
								{
									OFFSET 0.000000 0.000000 0.000000
									CHANNELS 3 Zrotation Yrotation Xrotation
									End Site
									{
										OFFSET 0.000000 0.000000 0.000000
									}
								}
							}
						}
					}
				}
				JOINT RightShoulder
				{
					OFFSET 0.000000 0.000000 0.000000
					CHANNELS 3 Zrotation Yrotation Xrotation
					JOINT RightArm
					{
						OFFSET -3.136600 1.374050 -0.404650
						CHANNELS 3 Zrotation Yrotation Xrotation
						JOINT RightForeArm
						{
							OFFSET -5.241900 -0.000000 -0.000000
							CHANNELS 3 Zrotation Yrotation Xrotation
							JOINT RightHand
							{
								OFFSET -3.444170 -0.000000 -0.000000
								CHANNELS 3 Zrotation Yrotation Xrotation
								JOINT RightFingerBase
								{
									OFFSET 0.000000 0.000000 0.000000
									CHANNELS 3 Zrotation Yrotation Xrotation
									JOINT RightHandIndex1
									{
										OFFSET -0.622530 -0.000000 -0.000000
										CHANNELS 3 Zrotation Yrotation Xrotation
										End Site
										{
											OFFSET 0.000000 0.000000 0.000000
										}
									}
								}
								JOINT RThumb
								{
									OFFSET 0.000000 0.000000 0.000000
									CHANNELS 3 Zrotation Yrotation Xrotation
									End Site
									{
										OFFSET 0.000000 0.000000 0.000000
									}
								}
							}
						}
					}
				}
			}
		}
	}
}
MOTION
Frames: 12
Frame Time: 0.008333
-0.209213 17.809129 -30.623721 1.092675 1.190151 1.495598 -6.372454 -1.723175 1.301269 -10.701144 -4.018405 -8.078167 0.164441 8.752333 22.428821 -3.320770 13.841251 -0.239597 0.231300 -3.095400 -8.544400 4.543634 1.861960 0.160142 9.911407 -2.284972 -12.704843 -2.240909 -11.191690 30.323819 5.205622 -20.579943 -9.666853 -0.000200 -0.095300 0.261900 -3.161587 -0.509764 5.536088 1.661579 -0.889614 -2.216152 3.199637 -0.459356 -3.398131 5.231127 -4.570436 -20.921351 -1.642795 -7.141646 20.874910 -5.532700 -2.464500 12.849800 3.646176 -0.832568 -0.047675 -90.915447 3.012938 19.718583 14.503929 -23.336088 -2.811002 0.216347 0.381270 -7.320581 13.764241 1.596160 0.296900 -7.125000 0.000000 0.000000 -10.394000 31.149400 3.570900 -3.177771 1.959741 0.068689 89.546016 -0.756005 -5.680276 -8.334156 15.140150 -1.257043 -0.035084 -0.401554 9.340559 -16.989363 -4.077243 1.118400 7.125000 0.000000 0.000000 7.854500 -33.725500 2.189200 
-0.212208 17.798444 -30.608642 1.047490 1.325951 0.995478 -6.344980 -1.629032 1.401978 -10.737990 -4.161169 -7.578324 0.179380 8.797388 22.528476 -3.345531 13.935137 -0.347403 0.240700 -3.157500 -8.717700 4.561508 1.843490 0.244485 9.965308 -2.432103 -12.175873 -2.243931 -11.184946 30.327835 5.236268 -20.717581 -9.950760 0.000000 0.014000 -0.038500 -0.792371 -2.271304 9.528732 1.073714 -3.062565 -4.146179 1.449050 -1.483266 -8.027763 5.877398 -2.703077 -21.331718 -1.734807 -4.522553 23.120889 -5.413300 -1.114700 14.336100 3.594545 -0.812963 -0.068540 -90.671223 7.495847 16.314446 15.440286 -24.470386 -3.135395 0.198932 0.404163 -8.304192 13.583038 1.818453 0.340700 -7.125000 0.000000 0.000000 -10.554300 31.349200 3.576100 -3.165245 2.241410 0.090199 90.172317 -4.082288 -0.461135 -8.509564 15.496947 -1.291858 -0.034104 -0.411814 8.651972 -16.875747 -3.630082 0.971600 7.125000 0.000000 0.000000 7.898200 -33.247900 2.293700 
-0.214805 17.787858 -30.595160 0.876290 1.410289 0.519887 -6.309405 -1.534811 1.502732 -10.639575 -4.253600 -7.078018 0.180718 8.808424 22.531235 -3.363678 14.001517 -0.456114 0.241400 -3.161600 -8.729000 4.583110 1.831726 0.312910 10.151813 -2.505988 -11.665170 -2.243000 -11.183596 30.341078 5.266077 -20.868547 -10.318429 -0.000800 0.179200 -0.492300 1.458236 -3.982829 13.414281 0.722740 -4.970986 -6.025891 0.400772 -2.450716 -13.011976 6.481832 -0.865522 -21.923548 -1.788657 -1.900427 25.265017 -5.198500 0.175700 15.924600 3.527503 -0.807481 -0.079834 -91.042718 12.093261 13.142388 16.352395 -25.554578 -3.468014 0.189872 0.421923 -9.132522 13.629094 1.842741 0.343900 -7.125000 0.000000 0.000000 -10.518300 31.358900 3.561100 -3.090130 2.494598 0.113239 90.260400 -7.565193 3.732060 -8.640688 15.705211 -1.306140 -0.037028 -0.412171 9.169520 -16.616872 -2.959478 0.755700 7.125000 0.000000 0.000000 8.035100 -32.546800 2.471400 
-0.230284 17.799342 -30.584175 0.971312 1.259157 1.032140 -6.327661 -1.597108 1.459556 -10.599980 -3.926564 -7.660104 0.179554 8.786829 22.508524 -3.302817 13.792888 -0.304407 0.231200 -3.095000 -8.543400 4.582976 1.849086 0.276277 10.094469 -2.296554 -12.097962 -2.233854 -11.166771 30.304771 5.278796 -20.891264 -10.375802 -0.001900 0.279500 -0.768000 0.719641 -3.532083 11.736801 0.841519 -4.529923 -5.518853 0.723425 -2.214832 -11.222776 6.317795 -1.187472 -21.597822 -1.771863 -2.367699 24.386961 -5.218500 -0.091500 15.312000 3.549600 -0.827662 -0.070646 -91.037124 10.807285 14.165457 16.295022 -25.526043 -3.452724 0.191821 0.414272 -9.007360 13.598700 1.678135 0.305800 -7.125000 0.000000 0.000000 -10.523500 31.199300 3.603900 -3.103790 2.403919 0.110367 90.226784 -6.833619 3.879210 -8.873931 16.060901 -1.368886 -0.029664 -0.421578 7.971785 -16.907848 -3.238313 0.851400 7.125000 0.000000 0.000000 7.829100 -32.833300 2.352400 
-0.239671 17.801240 -30.573290 0.953870 1.247464 1.123750 -6.323880 -1.595111 1.470575 -10.539545 -3.817243 -7.768061 0.178536 8.778589 22.493367 -3.277824 13.710329 -0.253081 0.229300 -3.082200 -8.507700 4.590383 1.854159 0.281162 10.138578 -2.248502 -12.139173 -2.228983 -11.157659 30.288569 5.295851 -20.956193 -10.512986 -0.003300 0.370400 -1.017800 1.106176 -3.881870 12.219959 0.799422 -4.932353 -5.895586 0.591152 -2.418665 -12.059012 6.440426 -0.774041 -21.711829 -1.790703 -1.771385 24.765689 -5.162800 0.187400 15.613400 3.533464 -0.830558 -0.070290 -91.213256 11.718198 13.708828 16.600008 -25.907732 -3.570796 0.189036 0.417361 -9.223813 13.596666 1.654078 0.299500 -7.125000 0.000000 0.000000 -10.521300 31.172300 3.610000 -3.078976 2.446563 0.118500 90.179806 -7.728373 5.478347 -9.097167 16.390182 -1.420456 -0.024785 -0.428027 7.294135 -16.988844 -3.187091 0.838100 7.125000 0.000000 0.000000 7.757300 -32.775900 2.341300 
-0.249457 17.804236 -30.563304 0.944748 1.271459 1.272831 -6.324894 -1.603337 1.470863 -10.472464 -3.706938 -7.915840 0.170526 8.754153 22.434186 -3.242946 13.597698 -0.154679 0.227500 -3.070300 -8.474400 4.594577 1.860201 0.277450 10.177845 -2.218635 -12.243254 -2.224677 -11.150707 30.274901 5.310184 -21.008122 -10.616290 -0.004300 0.422700 -1.161300 1.204951 -4.009971 12.171521 0.799477 -5.092137 -6.006044 0.573577 -2.498991 -12.186667 6.492553 -0.615442 -21.721058 -1.817494 -1.546265 24.817841 -5.150100 0.284200 15.670400 3.527245 -0.836753 -0.067877 -91.324995 11.995596 13.732409 16.794975 -26.161770 -3.649420 0.188419 0.418074 -9.329830 13.629575 1.609323 0.289500 -7.125000 0.000000 0.000000 -10.490400 31.127400 3.610600 -3.065885 2.452782 0.123400 90.139371 -8.149964 6.491534 -9.315995 16.711692 -1.474449 -0.019711 -0.434244 6.588458 -17.098623 -3.197281 0.845000 7.125000 0.000000 0.000000 7.668900 -32.782900 2.312900 
-0.258844 17.806932 -30.554316 0.947024 1.337950 1.425502 -6.326673 -1.616959 1.462401 -10.416178 -3.622685 -8.074841 0.166686 8.740166 22.407660 -3.202579 13.465715 -0.067487 0.227200 -3.068000 -8.468000 4.596235 1.865290 0.272294 10.206307 -2.231409 -12.357405 -2.219949 -11.142205 30.252323 5.323928 -21.053527 -10.670415 -0.004600 0.437800 -1.202900 1.137209 -4.017388 11.857077 0.816910 -5.122357 -5.959050 0.613191 -2.512537 -11.919423 6.491684 -0.616454 -21.662947 -1.839746 -1.550902 24.689400 -5.159400 0.270700 15.585600 3.526562 -0.843673 -0.064794 -91.385736 11.907089 14.047365 16.922217 -26.336730 -3.702974 0.189123 0.417189 -9.377885 13.679946 1.539736 0.274200 -7.125000 0.000000 0.000000 -10.443300 31.059100 3.611300 -3.060685 2.440018 0.126577 90.111893 -8.295182 7.161970 -9.533349 17.031400 -1.530393 -0.014275 -0.440221 5.839428 -17.205541 -3.237790 0.861300 7.125000 0.000000 0.000000 7.586000 -32.821600 2.280400 
-0.266833 17.810427 -30.544829 0.934928 1.430720 1.518745 -6.325912 -1.624900 1.457620 -10.358134 -3.566465 -8.162182 0.163493 8.729288 22.386355 -3.165242 13.344608 -0.000846 0.227900 -3.072700 -8.481300 4.596500 1.867533 0.270600 10.249679 -2.290367 -12.415047 -2.214873 -11.134030 30.225255 5.334140 -21.087605 -10.684184 -0.004300 0.421200 -1.157300 1.089142 -4.025499 11.591458 0.830417 -5.147648 -5.889211 0.637861 -2.525743 -11.653160 6.483539 -0.642511 -21.605041 -1.855650 -1.591618 24.564748 -5.169700 0.243000 15.499000 3.525841 -0.849454 -0.061852 -91.435503 11.799550 14.395504 17.037459 -26.495341 -3.751992 0.190232 0.416229 -9.419804 13.742261 1.466254 0.258200 -7.125000 0.000000 0.000000 -10.386900 30.987300 3.609400 -3.056843 2.427801 0.129736 90.086018 -8.411786 7.743002 -9.742029 17.336755 -1.585100 -0.008975 -0.445622 5.155632 -17.288090 -3.276810 0.876000 7.125000 0.000000 0.000000 7.522400 -32.858600 2.254200 
-0.273424 17.811226 -30.534244 0.914968 1.506218 1.566138 -6.322625 -1.628255 1.454908 -10.307185 -3.524644 -8.193131 0.161955 8.724157 22.376483 -3.138468 13.257473 0.030973 0.228400 -3.075900 -8.490100 4.595734 1.868752 0.269257 10.296257 -2.366751 -12.427548 -2.210121 -11.127024 30.197700 5.339004 -21.102994 -10.656361 -0.003600 0.384800 -1.057300 0.917219 -3.870917 11.384752 0.842814 -4.970618 -5.787887 0.699565 -2.435010 -11.381876 6.252461 -0.988921 -21.540107 -1.735990 -2.044625 24.433458 -5.137700 0.037900 15.355100 3.520377 -0.841246 -0.063424 -91.382877 11.589072 15.194847 17.096878 -26.579942 -3.777609 0.192054 0.414457 -9.422726 13.808089 1.377225 0.238500 -7.125000 0.000000 0.000000 -10.326400 30.900500 3.609600 -3.060566 2.426713 0.135114 90.126847 -8.537002 7.878248 -9.969525 17.668458 -1.647020 -0.003055 -0.451284 4.452324 -17.354574 -3.345417 0.899200 7.125000 0.000000 0.000000 7.474500 -32.925600 2.227400 
-0.279516 17.811825 -30.524557 0.881479 1.598500 1.589466 -6.318543 -1.629031 1.453364 -10.245747 -3.505933 -8.197977 0.161333 8.721377 22.372204 -3.114677 13.179600 0.055046 0.228900 -3.079800 -8.501000 4.595089 1.868740 0.269899 10.359421 -2.461974 -12.420131 -2.204560 -11.118707 30.162856 5.346773 -21.126851 -10.600530 -0.002700 0.336900 -0.925700 0.801603 -3.768972 11.212251 0.856228 -4.853627 -5.688935 0.745669 -2.376223 -11.137469 6.073227 -1.251274 -21.474010 -1.635376 -2.388874 24.302492 -5.106800 -0.119400 15.227600 3.516447 -0.835973 -0.063851 -91.350891 11.399131 15.873079 17.155067 -26.661918 -3.802486 0.192873 0.412882 -9.445007 13.837889 1.304605 0.221900 -7.125000 0.000000 0.000000 -10.295500 30.829300 3.616400 -3.063015 2.423572 0.139716 90.144802 -8.628776 8.057382 -10.167270 17.955586 -1.701450 0.002001 -0.455866 3.873005 -17.401645 -3.393020 0.915300 7.125000 0.000000 0.000000 7.440100 -32.971500 2.208700 
-0.285308 17.812424 -30.515769 0.834605 1.689883 1.593049 -6.313546 -1.627893 1.452367 -10.175006 -3.505181 -8.185203 0.163064 8.723553 22.381464 -3.095974 13.116601 0.062716 0.229000 -3.079900 -8.501200 4.594432 1.868213 0.271220 10.437691 -2.558580 -12.398783 -2.199651 -11.111959 30.131505 5.354584 -21.151698 -10.532226 -0.002000 0.285800 -0.785400 0.708195 -3.680107 11.072565 0.873897 -4.748553 -5.591768 0.790789 -2.324148 -10.916928 5.905578 -1.491008 -21.406884 -1.537391 -2.702024 24.181753 -5.074300 -0.262700 15.111000 3.513145 -0.830934 -0.064066 -91.326832 11.218838 16.518891 17.206661 -26.734540 -3.824070 0.192177 0.411995 -9.466195 13.820499 1.281222 0.216200 -7.125000 0.000000 0.000000 -10.306100 30.806200 3.626000 -3.065264 2.420492 0.143824 90.149339 -8.693723 8.197115 -10.337031 18.200912 -1.748939 0.006201 -0.459663 3.399525 -17.448461 -3.431551 0.928800 7.125000 0.000000 0.000000 7.405300 -33.008700 2.191500 
-0.291400 17.813323 -30.508279 0.784990 1.787916 1.607480 -6.309842 -1.627450 1.450212 -10.098150 -3.520832 -8.184554 0.164622 8.724834 22.389271 -3.079261 13.059364 0.076208 0.228500 -3.076500 -8.491700 4.594707 1.867892 0.272767 10.521830 -2.645751 -12.391542 -2.194545 -11.104425 30.098384 5.366829 -21.190379 -10.464494 -0.001300 0.236100 -0.648700 0.673464 -3.664194 10.933427 0.894097 -4.732579 -5.512422 0.822311 -2.317820 -10.720453 5.831989 -1.589849 -21.348146 -1.492350 -2.833210 24.073762 -5.056700 -0.326700 15.025300 3.512327 -0.831225 -0.062730 -91.339564 11.081040 16.970901 17.262339 -26.811640 -3.847041 0.190431 0.410476 -9.498972 13.748047 1.242757 0.206100 -7.125000 0.000000 0.000000 -10.357400 30.767400 3.654400 -3.064779 2.413200 0.146319 90.113868 -8.723701 8.456068 -10.466507 18.387168 -1.785108 0.009298 -0.462370 3.063862 -17.487793 -3.451935 0.936500 7.125000 0.000000 0.000000 7.374900 -33.028000 2.178900 
